:SAMPLES-PER-SECOND 30
:FULLY-SPECIFIED
:DEGREES
76
root  51.652 38.1181 -2.65141 26.9469 -86.0872 -31.6745
RightUpLeg  -7.84229 -6.34558 2.08126
RightLeg  25.0684 1.26202 0.236246
RightFoot  -12.0735 -0.105639 -3.70467
RightToes  -3.0268e-009 0 -3.6325e-017
Spine  5.59351 0.95331 13.9728
Spine1  7.13391 3.27481 -3.20648
HEad  -3.30802 -1.39414 -1.00818
LeftShoulder1  -0.548002 4.84857 -34.5814
LeftArm  3.72016 3.90115 -41.1894
LeftForeArm  31.9274 -14.0852 -7.69909
LeftHand  -0.140867 8.81524 -2.95832
RightShoulder  -1.09893 -6.4128 31.233
RightArm  19.874 7.53483 43.5497
RightForeArm  8.25892 17.7822 5.25891
RightHand  -0.127544 3.72513 -1.87965
LeftUpLeg  -19.1921 -1.06458 2.50921
LeftLeg  59.3657 -1.88228 -2.91597
LeftFoot  -2.67146 0.277139 -3.46547
LeftToes  2.52475e-009 -1.26109e-010 3.16044e-011
77
root  50.6182 38.2579 -2.63868 17.9231 -86.4647 -22.3937
RightUpLeg  -5.65676 -7.05362 1.118
RightLeg  23.8469 2.04503 0.507021
RightFoot  -13.2462 -0.152046 -3.79609
RightToes  -3.0268e-009 0 -3.6325e-017
Spine  5.27476 1.43321 14.1051
Spine1  6.99706 3.89904 -4.73031
HEad  -3.84632 -0.866883 -1.05417
LeftShoulder1  -0.571303 4.91304 -34.3714
LeftArm  4.44753 4.46056 -41.155
LeftForeArm  30.5766 -14.8407 -7.36101
LeftHand  -0.133426 9.28952 -2.33536
RightShoulder  -1.15115 -6.53356 31.4512
RightArm  20.8432 8.96638 43.8286
RightForeArm  6.56963 20.993 4.64814
RightHand  -0.126296 3.56625 -1.8925
LeftUpLeg  -21.0066 -0.758054 1.67762
LeftLeg  52.9859 -2.1043 -2.54577
LeftFoot  -3.96711 0.278442 -3.94254
LeftToes  2.52475e-009 -1.26109e-010 3.16044e-011
78
root  49.5862 38.3763 -2.60744 8.34981 -86.541 -12.6298
RightUpLeg  -3.22935 -7.84559 0.145359
RightLeg  22.3002 2.84129 0.809617
RightFoot  -14.3405 -0.188873 -3.50283
RightToes  -3.0268e-009 0 -3.6325e-017
Spine  4.72378 1.69528 13.8474
Spine1  7.42845 4.13055 -5.64398
HEad  -4.27758 -1.08889 -0.909874
LeftShoulder1  -0.567106 4.90024 -34.404
LeftArm  4.59742 4.9014 -40.9478
LeftForeArm  29.4492 -15.2465 -7.14311
LeftHand  -0.14226 9.7648 -2.24268
RightShoulder  -1.1032 -6.4427 30.9849
RightArm  19.9987 10.4946 44.8067
RightForeArm  6.58492 23.906 4.74343
RightHand  -0.176964 3.38108 -2.5825
LeftUpLeg  -21.8992 -0.166735 0.962138
LeftLeg  44.662 -2.2599 -1.99739
LeftFoot  -4.18909 0.272883 -3.95557
LeftToes  2.52475e-009 -1.26109e-010 3.16044e-011
79
root  48.5585 38.4973 -2.59198 0.277076 -86.6535 -4.22588
RightUpLeg  -0.785504 -8.386 -0.714997
RightLeg  20.3059 3.43897 1.04034
RightFoot  -15.0295 -0.213642 -3.47819
RightToes  -3.0268e-009 0 -3.6325e-017
Spine  5.24798 1.98623 13.5107
Spine1  5.95229 4.45973 -7.00573
HEad  -4.9464 -0.475862 -0.996287
LeftShoulder1  -0.463541 4.66249 -33.8356
LeftArm  3.98944 6.0584 -40.8568
LeftForeArm  29.9898 -14.9855 -7.20259
LeftHand  -0.135696 9.75208 -2.08181
RightShoulder  -1.19112 -6.62257 31.6592
RightArm  19.2601 11.5304 44.6422
RightForeArm  6.95079 26.7296 5.37986
RightHand  -0.204878 3.82025 -2.84525
LeftUpLeg  -21.9864 0.881018 0.314672
LeftLeg  34.6382 -2.09619 -1.23394
LeftFoot  -3.07576 0.332128 -4.34341
LeftToes  2.52475e-009 -1.26109e-010 3.16044e-011
80
root  47.4984 38.5803 -2.5873 -3.92668 -86.4095 0.353974
RightUpLeg  1.78906 -8.51033 -1.16864
RightLeg  18.0183 3.33008 0.922277
RightFoot  -15.6458 -0.234078 -3.41322
RightToes  -3.0268e-009 0 -3.6325e-017
Spine  4.57778 2.14323 12.1598
Spine1  6.20655 4.26113 -6.59574
HEad  -5.82939 0.471732 -1.34698
LeftShoulder1  -0.549879 4.86163 -34.3088
LeftArm  2.64921 6.32574 -40.4475
LeftForeArm  31.1519 -14.1629 -7.45539
LeftHand  -0.138655 10.0954 -1.9958
RightShoulder  -1.14391 -6.548 31.0421
RightArm  18.7948 12.7354 45.8985
RightForeArm  7.74733 29.0798 5.89132
RightHand  -0.192339 3.80515 -2.68946
LeftUpLeg  -21.3633 2.68571 -0.424762
LeftLeg  23.5813 -1.36718 -0.248688
LeftFoot  -2.5199 0.36929 -4.5905
LeftToes  2.52475e-009 -1.26109e-010 3.16044e-011
81
root  46.4096 38.6182 -2.55738 -6.04557 -85.9413 2.7762
RightUpLeg  4.54098 -8.67067 -1.61576
RightLeg  15.6612 3.09278 0.884824
RightFoot  -16.2458 -0.241246 -3.07337
RightToes  -3.0268e-009 0 -3.6325e-017
Spine  4.15145 2.15736 11.4007
Spine1  6.09779 4.25922 -7.22856
HEad  -6.18646 0.666198 -1.1721
LeftShoulder1  -0.430991 4.58777 -33.6297
LeftArm  0.650689 6.97651 -40.5197
LeftForeArm  32.6686 -12.8833 -7.78852
LeftHand  -0.146471 11.0893 -1.67373
RightShoulder  -1.19911 -6.6493 31.5952
RightArm  18.6611 13.5373 46.3593
RightForeArm  8.4099 31.3126 6.40254
RightHand  -0.201347 3.42249 -2.89478
LeftUpLeg  -20.2693 4.57061 -1.06037
LeftLeg  12.6557 0.269144 -0.00602289
LeftFoot  -1.41842 0.41942 -4.73592
LeftToes  2.52475e-009 -1.26109e-010 3.16044e-011
82
root  45.2495 38.5749 -2.49859 -7.17692 -85.2704 4.25323
RightUpLeg  7.24326 -8.72173 -1.99863
RightLeg  13.5993 2.64237 0.774339
RightFoot  -17.0782 -0.23772 -2.43415
RightToes  -3.0268e-009 0 -3.6325e-017
Spine  3.42576 2.13811 10.0077
Spine1  6.23115 4.02759 -6.78003
HEad  -6.46626 1.32289 -1.45472
LeftShoulder1  -0.466406 4.66567 -33.9756
LeftArm  -1.13099 7.09604 -39.9422
LeftForeArm  35.2541 -11.3974 -8.12322
LeftHand  -0.166718 10.6293 -2.28697
RightShoulder  -1.1484 -6.53473 31.3475
RightArm  18.791 13.8003 47.2925
RightForeArm  8.48213 32.7726 6.77338
RightHand  -0.262142 3.33955 -3.73226
LeftUpLeg  -19.1497 3.39264 -0.621031
LeftLeg  3.59963 6.33773 -0.969966
LeftFoot  0.338587 0.492213 -4.83143
LeftToes  2.52475e-009 -1.26109e-010 3.16044e-011
83
root  44.0031 38.4027 -2.41983 -7.09804 -84.3953 4.44097
RightUpLeg  9.60715 -8.81555 -2.27784
RightLeg  12.8051 1.91041 0.665446
RightFoot  -18.5425 -0.247256 -1.94361
RightToes  -3.0268e-009 0 -3.6325e-017
Spine  2.19619 2.07513 8.31712
Spine1  6.94694 3.70663 -5.93034
HEad  -6.64453 1.92809 -0.962277
LeftShoulder1  -0.517985 4.78523 -34.2551
LeftArm  -2.33159 6.9732 -39.2981
LeftForeArm  36.7544 -10.2022 -8.3341
LeftHand  -0.198184 11.0708 -2.70145
RightShoulder  -1.09258 -6.40675 31.0832
RightArm  19.4006 13.6506 48.4102
RightForeArm  8.47924 33.6363 7.00256
RightHand  -0.280988 2.90576 -4.14896
LeftUpLeg  -18.8694 2.64752 -0.500048
LeftLeg  -0.689586 12.6001 -2.04253
LeftFoot  0.456695 0.50618 -4.90361
LeftToes  2.52475e-009 -1.26109e-010 3.16044e-011
84
root  42.705 38.1265 -2.30898 -8.41566 -83.4399 5.71871
RightUpLeg  11.8145 -8.94107 -2.6694
RightLeg  13.2879 1.13745 0.388743
RightFoot  -20.4698 -0.216814 -0.9854
RightToes  -3.0268e-009 0 -3.6325e-017
Spine  2.02254 2.16658 6.89577
Spine1  6.64856 3.76194 -5.89545
HEad  -6.21094 1.65599 -0.0383848
LeftShoulder1  -0.44303 4.61434 -33.7455
LeftArm  -3.31636 7.14817 -38.9698
LeftForeArm  37.8086 -9.25868 -8.38329
LeftHand  -0.191093 10.5006 -2.89419
RightShoulder  -1.23018 -6.73534 31.5534
RightArm  20.3541 12.7365 48.9128
RightForeArm  8.76536 34.0873 7.10668
RightHand  -0.257085 3.08646 -3.77774
LeftUpLeg  -19.3511 2.74257 -1.08634
LeftLeg  0.522441 17.2927 -1.85017
LeftFoot  0.111049 0.260315 -2.64359
LeftToes  2.52475e-009 -1.26109e-010 3.16044e-011
85
root  41.3558 37.842 -2.18966 -11.012 -82.2994 8.30078
RightUpLeg  13.3648 -9.17644 -3.31345
RightLeg  15.2791 0.474315 0.159729
RightFoot  -22.1822 -0.082952 0.701336
RightToes  -3.0268e-009 0 -3.6325e-017
Spine  1.69391 2.20569 4.8977
Spine1  6.57141 3.82963 -5.81099
HEad  -5.85666 2.15197 0.864831
LeftShoulder1  -0.428826 4.59133 -33.2897
LeftArm  -4.50848 7.17743 -38.5258
LeftForeArm  38.3979 -8.55892 -8.19325
LeftHand  -0.182745 10.4622 -2.77531
RightShoulder  -1.23485 -6.70862 31.9903
RightArm  22.1163 11.4165 49.2667
RightForeArm  8.47377 33.4407 6.95029
RightHand  -0.237976 4.42713 -3.08571
LeftUpLeg  -20.8455 3.97498 -2.36594
LeftLeg  6.08677 18.4433 -0.389972
LeftFoot  1.80338 -0.259587 2.10513
LeftToes  2.52475e-009 -1.26109e-010 3.16044e-011
